<?xml version="1.0" standalone="no"?>
<!DOCTYPE svg PUBLIC "-//W3C//DTD SVG 20010904//EN"
 "http://www.w3.org/TR/2001/REC-SVG-20010904/DTD/svg10.dtd">
<svg version="1.0" xmlns="http://www.w3.org/2000/svg"
 width="204.000000pt" height="221.000000pt" viewBox="0 0 204.000000 221.000000"
 preserveAspectRatio="xMidYMid meet">
<metadata>
Created by potrace 1.16, written by Peter Selinger 2001-2019
</metadata>
<g transform="translate(0.000000,221.000000) scale(0.100000,-0.100000)"
fill="#000000" stroke="none">
<path d="M840 1981 c-102 -59 -277 -160 -390 -225 -113 -65 -222 -129 -243
-142 l-37 -25 2 -262 3 -262 425 -247 c234 -135 430 -247 437 -247 6 -1 102
51 212 115 110 63 207 114 214 112 19 -5 327 -182 327 -189 0 -3 -169 -103
-375 -222 l-375 -216 -400 231 -400 231 0 117 c0 129 -9 152 -49 130 -20 -10
-21 -20 -21 -149 0 -99 4 -141 12 -149 7 -5 112 -67 233 -137 121 -70 309
-178 417 -241 108 -63 202 -114 208 -114 10 0 753 425 833 477 67 43 58 52
-188 195 -121 70 -227 125 -235 122 -8 -3 -101 -54 -206 -114 -105 -61 -197
-110 -205 -110 -8 0 -84 41 -169 90 -85 49 -262 151 -392 226 l-238 137 0 217
0 217 400 231 400 231 400 -231 400 -231 0 -313 c0 -173 -3 -314 -6 -314 -3 0
-82 43 -175 96 l-169 96 0 119 c0 117 0 118 -27 137 -42 29 -413 242 -422 242
-10 0 -384 -214 -423 -242 l-28 -19 0 -138 c0 -151 7 -174 49 -151 19 10 21
20 21 130 l0 118 138 80 c75 44 161 92 189 108 l53 29 62 -34 c35 -19 120 -67
190 -108 l127 -75 3 -121 3 -122 172 -100 c95 -55 197 -113 227 -129 90 -49
86 -66 86 375 l0 379 -37 24 c-93 59 -824 476 -835 476 -7 -1 -96 -49 -198
-109z"/>
</g>
</svg>
