<?xml version="1.0" standalone="no"?>
<!DOCTYPE svg PUBLIC "-//W3C//DTD SVG 20010904//EN"
 "http://www.w3.org/TR/2001/REC-SVG-20010904/DTD/svg10.dtd">
<svg version="1.0" xmlns="http://www.w3.org/2000/svg"
 width="193.000000pt" height="222.000000pt" viewBox="0 0 193.000000 222.000000"
 preserveAspectRatio="xMidYMid meet">
<metadata>
Created by potrace 1.16, written by Peter Selinger 2001-2019
</metadata>
<g transform="translate(0.000000,222.000000) scale(0.100000,-0.100000)"
fill="#000000" stroke="none">
<path d="M0 1110 l0 -1110 965 0 965 0 0 1110 0 1110 -965 0 -965 0 0 -1110z
m996 1021 c5 -5 117 -71 249 -146 495 -285 550 -317 568 -332 16 -15 17 -47
17 -399 l0 -384 -24 -6 c-18 -4 -67 20 -212 104 -104 60 -204 117 -221 126
l-33 17 0 122 0 123 -182 104 c-100 58 -189 105 -198 105 -9 0 -98 -47 -198
-105 l-182 -104 0 -116 c0 -63 -4 -119 -8 -125 -14 -19 -50 -17 -61 4 -16 29
-14 263 2 283 6 9 57 41 112 72 55 32 107 61 115 66 108 64 189 109 208 114
18 6 67 -18 235 -114 117 -67 216 -126 222 -131 11 -11 13 -33 14 -156 l1 -92
159 -90 c87 -50 161 -91 165 -91 3 0 5 140 4 311 l-3 310 -100 58 c-553 320
-677 391 -685 391 -8 0 -129 -69 -685 -391 l-100 -58 -3 -219 -2 -220 147 -85
c148 -85 379 -219 546 -316 49 -28 92 -51 97 -51 5 0 48 23 97 51 288 168 313
181 338 175 14 -4 25 -11 25 -16 0 -6 5 -10 10 -10 9 0 102 -52 180 -100 8 -5
56 -32 107 -60 51 -29 97 -58 104 -66 16 -20 3 -62 -24 -70 -12 -3 -29 -12
-37 -19 -8 -7 -89 -56 -180 -108 -429 -245 -576 -330 -585 -338 -21 -20 -59
-5 -196 74 -79 46 -271 157 -426 246 l-283 163 0 142 c0 146 5 166 42 166 29
0 38 -34 38 -148 l0 -110 83 -48 c45 -26 107 -62 137 -80 217 -128 562 -324
570 -324 9 0 400 223 600 342 36 21 82 46 102 56 21 9 38 22 38 28 0 5 -72 52
-161 103 l-161 92 -145 -83 c-80 -46 -171 -97 -202 -115 -57 -33 -89 -40 -107
-24 -5 5 -124 75 -264 156 -140 81 -326 188 -413 238 l-157 91 0 262 0 263 33
24 c17 14 79 51 137 84 256 145 656 376 665 384 12 12 58 12 71 0z"/>
</g>
</svg>
