<?xml version="1.0" encoding="UTF-8"?>
<svg xmlns="http://www.w3.org/2000/svg" xmlns:xlink="http://www.w3.org/1999/xlink" width="89pt" height="96pt" viewBox="0 0 89 96" version="1.1">
<g id="surface1">
<path style=" stroke:none;fill-rule:nonzero;fill:rgb(0%,0%,0%);fill-opacity:1;" d="M 36.648438 9.957031 C 32.195312 12.523438 24.5625 16.914062 19.632812 19.738281 C 14.703125 22.566406 9.945312 25.347656 9.03125 25.914062 L 7.417969 27 L 7.503906 38.390625 L 7.636719 49.78125 L 26.175781 60.523438 C 36.386719 66.390625 44.9375 71.261719 45.242188 71.261719 C 45.503906 71.304688 49.691406 69.042969 54.492188 66.261719 C 59.289062 63.523438 63.523438 61.304688 63.828125 61.390625 C 64.65625 61.609375 78.09375 69.304688 78.09375 69.609375 C 78.09375 69.738281 70.71875 74.085938 61.734375 79.261719 L 45.371094 88.652344 L 27.921875 78.609375 L 10.46875 68.566406 L 10.46875 63.476562 C 10.46875 57.871094 10.078125 56.871094 8.332031 57.824219 C 7.460938 58.261719 7.417969 58.695312 7.417969 64.304688 C 7.417969 68.609375 7.589844 70.433594 7.941406 70.78125 C 8.246094 71 12.828125 73.695312 18.105469 76.738281 C 23.382812 79.78125 31.585938 84.476562 36.296875 87.21875 C 41.011719 89.957031 45.109375 92.175781 45.371094 92.175781 C 45.808594 92.175781 78.222656 73.695312 81.714844 71.433594 C 84.636719 69.566406 84.246094 69.175781 73.511719 62.957031 C 68.234375 59.914062 63.609375 57.523438 63.261719 57.652344 C 62.910156 57.78125 58.851562 60 54.273438 62.609375 C 49.691406 65.261719 45.679688 67.390625 45.328125 67.390625 C 44.980469 67.390625 41.664062 65.609375 37.957031 63.476562 C 34.246094 61.347656 26.527344 56.914062 20.855469 53.652344 L 10.46875 47.695312 L 10.46875 28.824219 L 27.921875 18.78125 L 45.371094 8.738281 L 62.824219 18.78125 L 80.273438 28.824219 L 80.273438 42.433594 C 80.273438 49.957031 80.144531 56.085938 80.011719 56.085938 C 79.882812 56.085938 76.433594 54.21875 72.378906 51.914062 L 65.003906 47.738281 L 65.003906 42.566406 C 65.003906 37.476562 65.003906 37.433594 63.828125 36.609375 C 61.996094 35.347656 45.808594 26.085938 45.417969 26.085938 C 44.980469 26.085938 28.664062 35.390625 26.960938 36.609375 L 25.738281 37.433594 L 25.738281 43.433594 C 25.738281 50 26.046875 51 27.878906 50 C 28.707031 49.566406 28.792969 49.128906 28.792969 44.347656 L 28.792969 39.21875 L 34.816406 35.738281 C 38.085938 33.824219 41.839844 31.738281 43.058594 31.042969 L 45.371094 29.78125 L 48.078125 31.261719 C 49.605469 32.085938 53.3125 34.175781 56.367188 35.957031 L 61.90625 39.21875 L 62.039062 44.476562 L 62.167969 49.78125 L 69.671875 54.128906 C 73.816406 56.523438 78.269531 59.042969 79.578125 59.738281 C 83.503906 61.871094 83.328125 62.609375 83.328125 43.433594 L 83.328125 26.957031 L 81.714844 25.914062 C 77.65625 23.347656 45.765625 5.21875 45.285156 5.21875 C 44.980469 5.261719 41.097656 7.347656 36.648438 9.957031 Z M 36.648438 9.957031 "/>
</g>
</svg>
